<mxfile host="65bd71144e" modified="2020-12-02T10:12:11.257Z" agent="5.0 (Windows NT 10.0; Win64; x64) AppleWebKit/537.36 (KHTML, like Gecko) Code/1.51.1 Chrome/83.0.4103.122 Electron/9.3.3 Safari/537.36" etag="1LTROX2GBmO_XkrVKV3K" version="13.6.5" pages="2">
    <diagram id="aXUzEIALXjILgqQjES93" name="UseCase">
        <mxGraphModel dx="1383" dy="998" grid="1" gridSize="10" guides="1" tooltips="1" connect="1" arrows="1" fold="1" page="1" pageScale="1" pageWidth="827" pageHeight="1169" math="0" shadow="0">
            <root>
                <mxCell id="Quk3XFfk6msulrKUDnCM-0"/>
                <mxCell id="Quk3XFfk6msulrKUDnCM-1" parent="Quk3XFfk6msulrKUDnCM-0"/>
                <mxCell id="OUVxB4Yv_TNwR6XSdUoU-0" value="VoteApp" style="rounded=0;whiteSpace=wrap;html=1;horizontal=1;verticalAlign=top;fontSize=16;" parent="Quk3XFfk6msulrKUDnCM-1" vertex="1">
                    <mxGeometry x="220" y="40" width="490" height="610" as="geometry"/>
                </mxCell>
                <mxCell id="OUVxB4Yv_TNwR6XSdUoU-1" style="edgeStyle=none;rounded=0;orthogonalLoop=1;jettySize=auto;html=1;exitX=1;exitY=0.3333333333333333;exitDx=0;exitDy=0;exitPerimeter=0;entryX=0;entryY=0.5;entryDx=0;entryDy=0;endArrow=none;endFill=0;fontSize=16;" parent="Quk3XFfk6msulrKUDnCM-1" source="OUVxB4Yv_TNwR6XSdUoU-3" target="OUVxB4Yv_TNwR6XSdUoU-10" edge="1">
                    <mxGeometry relative="1" as="geometry"/>
                </mxCell>
                <mxCell id="OUVxB4Yv_TNwR6XSdUoU-2" style="edgeStyle=none;rounded=0;orthogonalLoop=1;jettySize=auto;html=1;exitX=1;exitY=0.3333333333333333;exitDx=0;exitDy=0;exitPerimeter=0;endArrow=none;endFill=0;fontSize=14;" parent="Quk3XFfk6msulrKUDnCM-1" source="OUVxB4Yv_TNwR6XSdUoU-3" target="OUVxB4Yv_TNwR6XSdUoU-22" edge="1">
                    <mxGeometry relative="1" as="geometry"/>
                </mxCell>
                <mxCell id="1" style="rounded=0;orthogonalLoop=1;jettySize=auto;html=1;exitX=1;exitY=0.3333333333333333;exitDx=0;exitDy=0;exitPerimeter=0;entryX=0;entryY=0.5;entryDx=0;entryDy=0;endArrow=none;endFill=0;" edge="1" parent="Quk3XFfk6msulrKUDnCM-1" source="OUVxB4Yv_TNwR6XSdUoU-3" target="0">
                    <mxGeometry relative="1" as="geometry"/>
                </mxCell>
                <mxCell id="OUVxB4Yv_TNwR6XSdUoU-3" value="Aänestyksen tekijä" style="shape=umlActor;verticalLabelPosition=bottom;verticalAlign=top;html=1;" parent="Quk3XFfk6msulrKUDnCM-1" vertex="1">
                    <mxGeometry x="120" y="160" width="40" height="80" as="geometry"/>
                </mxCell>
                <mxCell id="OUVxB4Yv_TNwR6XSdUoU-4" style="rounded=0;orthogonalLoop=1;jettySize=auto;html=1;exitX=1;exitY=0.3333333333333333;exitDx=0;exitDy=0;exitPerimeter=0;entryX=0;entryY=0.5;entryDx=0;entryDy=0;fontSize=16;endArrow=none;endFill=0;" parent="Quk3XFfk6msulrKUDnCM-1" source="OUVxB4Yv_TNwR6XSdUoU-8" target="OUVxB4Yv_TNwR6XSdUoU-18" edge="1">
                    <mxGeometry relative="1" as="geometry"/>
                </mxCell>
                <mxCell id="OUVxB4Yv_TNwR6XSdUoU-5" style="edgeStyle=none;rounded=0;orthogonalLoop=1;jettySize=auto;html=1;exitX=1;exitY=0.3333333333333333;exitDx=0;exitDy=0;exitPerimeter=0;endArrow=none;endFill=0;fontSize=16;" parent="Quk3XFfk6msulrKUDnCM-1" source="OUVxB4Yv_TNwR6XSdUoU-8" target="OUVxB4Yv_TNwR6XSdUoU-21" edge="1">
                    <mxGeometry relative="1" as="geometry"/>
                </mxCell>
                <mxCell id="OUVxB4Yv_TNwR6XSdUoU-6" style="edgeStyle=none;rounded=0;orthogonalLoop=1;jettySize=auto;html=1;exitX=1;exitY=0.3333333333333333;exitDx=0;exitDy=0;exitPerimeter=0;entryX=0;entryY=0.5;entryDx=0;entryDy=0;endArrow=none;endFill=0;fontSize=16;" parent="Quk3XFfk6msulrKUDnCM-1" source="OUVxB4Yv_TNwR6XSdUoU-8" target="OUVxB4Yv_TNwR6XSdUoU-17" edge="1">
                    <mxGeometry relative="1" as="geometry"/>
                </mxCell>
                <mxCell id="OUVxB4Yv_TNwR6XSdUoU-7" style="edgeStyle=none;rounded=0;orthogonalLoop=1;jettySize=auto;html=1;exitX=1;exitY=0.3333333333333333;exitDx=0;exitDy=0;exitPerimeter=0;endArrow=none;endFill=0;fontSize=14;" parent="Quk3XFfk6msulrKUDnCM-1" source="OUVxB4Yv_TNwR6XSdUoU-8" target="OUVxB4Yv_TNwR6XSdUoU-22" edge="1">
                    <mxGeometry relative="1" as="geometry"/>
                </mxCell>
                <mxCell id="OUVxB4Yv_TNwR6XSdUoU-8" value="Äänestäjä" style="shape=umlActor;verticalLabelPosition=bottom;verticalAlign=top;html=1;" parent="Quk3XFfk6msulrKUDnCM-1" vertex="1">
                    <mxGeometry x="140" y="410" width="40" height="80" as="geometry"/>
                </mxCell>
                <mxCell id="OUVxB4Yv_TNwR6XSdUoU-9" value="&amp;lt;&amp;lt;include&amp;gt;&amp;gt;" style="edgeStyle=none;rounded=0;orthogonalLoop=1;jettySize=auto;html=1;exitX=1;exitY=0.5;exitDx=0;exitDy=0;endArrow=none;endFill=0;fontSize=10;dashed=1;entryX=0;entryY=0.5;entryDx=0;entryDy=0;" parent="Quk3XFfk6msulrKUDnCM-1" source="OUVxB4Yv_TNwR6XSdUoU-10" target="OUVxB4Yv_TNwR6XSdUoU-20" edge="1">
                    <mxGeometry relative="1" as="geometry">
                        <mxPoint x="570" y="210" as="targetPoint"/>
                    </mxGeometry>
                </mxCell>
                <mxCell id="OUVxB4Yv_TNwR6XSdUoU-10" value="Luo äänestyksen" style="ellipse;whiteSpace=wrap;html=1;" parent="Quk3XFfk6msulrKUDnCM-1" vertex="1">
                    <mxGeometry x="330" y="60" width="120" height="80" as="geometry"/>
                </mxCell>
                <mxCell id="OUVxB4Yv_TNwR6XSdUoU-12" value="&amp;lt;&amp;lt;include&amp;gt;&amp;gt;" style="edgeStyle=none;rounded=0;orthogonalLoop=1;jettySize=auto;html=1;exitX=0.977;exitY=0.36;exitDx=0;exitDy=0;entryX=0;entryY=0.5;entryDx=0;entryDy=0;endArrow=none;endFill=0;fontSize=11;dashed=1;exitPerimeter=0;" parent="Quk3XFfk6msulrKUDnCM-1" source="0" target="OUVxB4Yv_TNwR6XSdUoU-20" edge="1">
                    <mxGeometry relative="1" as="geometry"/>
                </mxCell>
                <mxCell id="OUVxB4Yv_TNwR6XSdUoU-13" value="Muokkaa äänestyksiä" style="ellipse;whiteSpace=wrap;html=1;" parent="Quk3XFfk6msulrKUDnCM-1" vertex="1">
                    <mxGeometry x="510" y="270" width="120" height="80" as="geometry"/>
                </mxCell>
                <mxCell id="OUVxB4Yv_TNwR6XSdUoU-15" value="Poistaa äänestyksen" style="ellipse;whiteSpace=wrap;html=1;" parent="Quk3XFfk6msulrKUDnCM-1" vertex="1">
                    <mxGeometry x="540" y="170" width="120" height="80" as="geometry"/>
                </mxCell>
                <mxCell id="OUVxB4Yv_TNwR6XSdUoU-16" style="edgeStyle=none;rounded=0;orthogonalLoop=1;jettySize=auto;html=1;exitX=0;exitY=0;exitDx=0;exitDy=0;endArrow=none;endFill=0;fontSize=16;entryX=1;entryY=0.3333333333333333;entryDx=0;entryDy=0;entryPerimeter=0;" parent="Quk3XFfk6msulrKUDnCM-1" source="OUVxB4Yv_TNwR6XSdUoU-17" target="OUVxB4Yv_TNwR6XSdUoU-3" edge="1">
                    <mxGeometry relative="1" as="geometry">
                        <mxPoint x="190" y="180" as="targetPoint"/>
                    </mxGeometry>
                </mxCell>
                <mxCell id="OUVxB4Yv_TNwR6XSdUoU-17" value="Selaa äänestyksiä" style="ellipse;whiteSpace=wrap;html=1;" parent="Quk3XFfk6msulrKUDnCM-1" vertex="1">
                    <mxGeometry x="260" y="330" width="120" height="80" as="geometry"/>
                </mxCell>
                <mxCell id="OUVxB4Yv_TNwR6XSdUoU-18" value="Äänestää" style="ellipse;whiteSpace=wrap;html=1;" parent="Quk3XFfk6msulrKUDnCM-1" vertex="1">
                    <mxGeometry x="300" y="540" width="120" height="80" as="geometry"/>
                </mxCell>
                <mxCell id="OUVxB4Yv_TNwR6XSdUoU-20" value="Kirjautuminen" style="ellipse;whiteSpace=wrap;html=1;" parent="Quk3XFfk6msulrKUDnCM-1" vertex="1">
                    <mxGeometry x="570" y="70" width="120" height="80" as="geometry"/>
                </mxCell>
                <mxCell id="OUVxB4Yv_TNwR6XSdUoU-21" value="Rekisteröityminen" style="ellipse;whiteSpace=wrap;html=1;" parent="Quk3XFfk6msulrKUDnCM-1" vertex="1">
                    <mxGeometry x="300" y="440" width="120" height="80" as="geometry"/>
                </mxCell>
                <mxCell id="OUVxB4Yv_TNwR6XSdUoU-22" value="Äänestystulosten&amp;nbsp;&lt;br&gt;tarkastelu" style="ellipse;whiteSpace=wrap;html=1;" parent="Quk3XFfk6msulrKUDnCM-1" vertex="1">
                    <mxGeometry x="480" y="380" width="120" height="80" as="geometry"/>
                </mxCell>
                <mxCell id="2" value="&amp;lt;&amp;lt;extends&amp;gt;&amp;gt;" style="edgeStyle=none;rounded=0;orthogonalLoop=1;jettySize=auto;html=1;exitX=1;exitY=0.5;exitDx=0;exitDy=0;endArrow=classicThin;endFill=1;dashed=1;" edge="1" parent="Quk3XFfk6msulrKUDnCM-1" source="0" target="OUVxB4Yv_TNwR6XSdUoU-15">
                    <mxGeometry relative="1" as="geometry"/>
                </mxCell>
                <mxCell id="3" value="&amp;lt;&amp;lt;exteds&amp;gt;&amp;gt;" style="edgeStyle=none;rounded=0;orthogonalLoop=1;jettySize=auto;html=1;exitX=1;exitY=1;exitDx=0;exitDy=0;endArrow=classicThin;endFill=1;dashed=1;" edge="1" parent="Quk3XFfk6msulrKUDnCM-1" source="0" target="OUVxB4Yv_TNwR6XSdUoU-13">
                    <mxGeometry relative="1" as="geometry"/>
                </mxCell>
                <mxCell id="0" value="Selaa omia äänestyksiä" style="ellipse;whiteSpace=wrap;html=1;" vertex="1" parent="Quk3XFfk6msulrKUDnCM-1">
                    <mxGeometry x="310" y="160" width="120" height="80" as="geometry"/>
                </mxCell>
            </root>
        </mxGraphModel>
    </diagram>
    <diagram id="QjJ-oTkgt69zkW7fGOqC" name="ER">
        <mxGraphModel dx="1422" dy="738" grid="1" gridSize="10" guides="1" tooltips="1" connect="1" arrows="1" fold="1" page="1" pageScale="1" pageWidth="827" pageHeight="1169" math="0" shadow="0">
            <root>
                <mxCell id="0"/>
                <mxCell id="1" parent="0"/>
                <mxCell id="6Wv2fJGCumR8L-NIXc7f-1" style="edgeStyle=none;rounded=0;orthogonalLoop=1;jettySize=auto;html=1;exitX=0.5;exitY=0;exitDx=0;exitDy=0;entryX=0.38;entryY=1;entryDx=0;entryDy=0;entryPerimeter=0;endArrow=none;endFill=0;fontSize=14;" edge="1" parent="1" source="6Wv2fJGCumR8L-NIXc7f-7" target="6Wv2fJGCumR8L-NIXc7f-8">
                    <mxGeometry relative="1" as="geometry"/>
                </mxCell>
                <mxCell id="6Wv2fJGCumR8L-NIXc7f-2" style="edgeStyle=none;rounded=0;orthogonalLoop=1;jettySize=auto;html=1;exitX=1;exitY=0;exitDx=0;exitDy=0;entryX=0;entryY=1;entryDx=0;entryDy=0;endArrow=none;endFill=0;fontSize=14;" edge="1" parent="1" source="6Wv2fJGCumR8L-NIXc7f-7" target="6Wv2fJGCumR8L-NIXc7f-9">
                    <mxGeometry relative="1" as="geometry"/>
                </mxCell>
                <mxCell id="6Wv2fJGCumR8L-NIXc7f-3" style="edgeStyle=none;rounded=0;orthogonalLoop=1;jettySize=auto;html=1;exitX=1;exitY=0.5;exitDx=0;exitDy=0;entryX=0;entryY=0.5;entryDx=0;entryDy=0;endArrow=none;endFill=0;fontSize=14;" edge="1" parent="1" source="6Wv2fJGCumR8L-NIXc7f-7" target="6Wv2fJGCumR8L-NIXc7f-10">
                    <mxGeometry relative="1" as="geometry"/>
                </mxCell>
                <mxCell id="6Wv2fJGCumR8L-NIXc7f-4" value="1" style="edgeStyle=none;rounded=0;orthogonalLoop=1;jettySize=auto;html=1;exitX=0.5;exitY=1;exitDx=0;exitDy=0;entryX=0.5;entryY=0;entryDx=0;entryDy=0;endArrow=none;endFill=0;fontSize=14;" edge="1" parent="1" source="6Wv2fJGCumR8L-NIXc7f-7" target="6Wv2fJGCumR8L-NIXc7f-18">
                    <mxGeometry y="10" relative="1" as="geometry">
                        <mxPoint as="offset"/>
                    </mxGeometry>
                </mxCell>
                <mxCell id="6Wv2fJGCumR8L-NIXc7f-5" style="edgeStyle=none;rounded=0;orthogonalLoop=1;jettySize=auto;html=1;exitX=0.25;exitY=0;exitDx=0;exitDy=0;entryX=0.817;entryY=0.95;entryDx=0;entryDy=0;entryPerimeter=0;endArrow=none;endFill=0;fontSize=14;" edge="1" parent="1" source="6Wv2fJGCumR8L-NIXc7f-7" target="6Wv2fJGCumR8L-NIXc7f-19">
                    <mxGeometry relative="1" as="geometry"/>
                </mxCell>
                <mxCell id="6Wv2fJGCumR8L-NIXc7f-6" style="edgeStyle=none;rounded=0;orthogonalLoop=1;jettySize=auto;html=1;exitX=1;exitY=0.5;exitDx=0;exitDy=0;entryX=0;entryY=0.5;entryDx=0;entryDy=0;endArrow=none;endFill=0;fontSize=14;" edge="1" parent="1" source="6Wv2fJGCumR8L-NIXc7f-7" target="6Wv2fJGCumR8L-NIXc7f-34">
                    <mxGeometry relative="1" as="geometry"/>
                </mxCell>
                <mxCell id="6Wv2fJGCumR8L-NIXc7f-7" value="Äänestys" style="whiteSpace=wrap;html=1;align=center;fontSize=14;" vertex="1" parent="1">
                    <mxGeometry x="470" y="170" width="100" height="40" as="geometry"/>
                </mxCell>
                <mxCell id="6Wv2fJGCumR8L-NIXc7f-8" value="Nimi" style="ellipse;whiteSpace=wrap;html=1;align=center;fontSize=14;" vertex="1" parent="1">
                    <mxGeometry x="480" y="30" width="100" height="40" as="geometry"/>
                </mxCell>
                <mxCell id="6Wv2fJGCumR8L-NIXc7f-9" value="Alkamisaika" style="ellipse;whiteSpace=wrap;html=1;align=center;fontSize=14;" vertex="1" parent="1">
                    <mxGeometry x="590" y="60" width="100" height="40" as="geometry"/>
                </mxCell>
                <mxCell id="6Wv2fJGCumR8L-NIXc7f-10" value="Päättymisaika" style="ellipse;whiteSpace=wrap;html=1;align=center;fontSize=14;" vertex="1" parent="1">
                    <mxGeometry x="660" y="130" width="100" height="40" as="geometry"/>
                </mxCell>
                <mxCell id="6Wv2fJGCumR8L-NIXc7f-11" value="&lt;h1&gt;VoteApp&lt;/h1&gt;&lt;p style=&quot;font-size: 11px&quot;&gt;Nimi: Äänestyksen otsikko/kysymys&lt;br&gt;Alakamisaika: milloin voi alkaa äänestää&lt;br&gt;Päättymisaika: milloin äänestys loppuu&lt;br&gt;Kohde: Mitä äänestetään&lt;/p&gt;" style="text;html=1;strokeColor=none;fillColor=none;spacing=5;spacingTop=-20;whiteSpace=wrap;overflow=hidden;rounded=0;fontSize=14;" vertex="1" parent="1">
                    <mxGeometry x="20" y="40" width="250" height="120" as="geometry"/>
                </mxCell>
                <mxCell id="6Wv2fJGCumR8L-NIXc7f-12" style="edgeStyle=none;rounded=0;orthogonalLoop=1;jettySize=auto;html=1;exitX=1;exitY=0;exitDx=0;exitDy=0;entryX=0;entryY=0.5;entryDx=0;entryDy=0;endArrow=none;endFill=0;fontSize=14;" edge="1" parent="1" source="6Wv2fJGCumR8L-NIXc7f-15" target="6Wv2fJGCumR8L-NIXc7f-16">
                    <mxGeometry relative="1" as="geometry"/>
                </mxCell>
                <mxCell id="6Wv2fJGCumR8L-NIXc7f-13" style="edgeStyle=none;rounded=0;orthogonalLoop=1;jettySize=auto;html=1;exitX=1;exitY=0.5;exitDx=0;exitDy=0;entryX=0;entryY=0.5;entryDx=0;entryDy=0;endArrow=none;endFill=0;fontSize=14;" edge="1" parent="1" source="6Wv2fJGCumR8L-NIXc7f-15" target="6Wv2fJGCumR8L-NIXc7f-20">
                    <mxGeometry relative="1" as="geometry"/>
                </mxCell>
                <mxCell id="6Wv2fJGCumR8L-NIXc7f-14" style="edgeStyle=none;rounded=0;orthogonalLoop=1;jettySize=auto;html=1;exitX=0.75;exitY=1;exitDx=0;exitDy=0;endArrow=none;endFill=0;fontSize=14;" edge="1" parent="1" source="6Wv2fJGCumR8L-NIXc7f-15" target="6Wv2fJGCumR8L-NIXc7f-23">
                    <mxGeometry relative="1" as="geometry"/>
                </mxCell>
                <mxCell id="6Wv2fJGCumR8L-NIXc7f-15" value="Vaihtoehto" style="whiteSpace=wrap;html=1;align=center;fontSize=14;" vertex="1" parent="1">
                    <mxGeometry x="470" y="400" width="100" height="40" as="geometry"/>
                </mxCell>
                <mxCell id="6Wv2fJGCumR8L-NIXc7f-16" value="Nimi" style="ellipse;whiteSpace=wrap;html=1;align=center;fontSize=14;" vertex="1" parent="1">
                    <mxGeometry x="620" y="360" width="100" height="40" as="geometry"/>
                </mxCell>
                <mxCell id="6Wv2fJGCumR8L-NIXc7f-17" value="N" style="edgeStyle=none;rounded=0;orthogonalLoop=1;jettySize=auto;html=1;exitX=0.5;exitY=1;exitDx=0;exitDy=0;endArrow=none;endFill=0;fontSize=14;" edge="1" parent="1" source="6Wv2fJGCumR8L-NIXc7f-18" target="6Wv2fJGCumR8L-NIXc7f-15">
                    <mxGeometry x="-0.1111" y="-10" relative="1" as="geometry">
                        <mxPoint x="510" y="380" as="sourcePoint"/>
                        <mxPoint as="offset"/>
                    </mxGeometry>
                </mxCell>
                <mxCell id="6Wv2fJGCumR8L-NIXc7f-18" value="Kuuluu" style="shape=rhombus;perimeter=rhombusPerimeter;whiteSpace=wrap;html=1;align=center;fontSize=14;" vertex="1" parent="1">
                    <mxGeometry x="460" y="260" width="120" height="60" as="geometry"/>
                </mxCell>
                <mxCell id="6Wv2fJGCumR8L-NIXc7f-19" value="ID" style="ellipse;whiteSpace=wrap;html=1;align=center;fontSize=14;" vertex="1" parent="1">
                    <mxGeometry x="370" y="60" width="100" height="40" as="geometry"/>
                </mxCell>
                <mxCell id="6Wv2fJGCumR8L-NIXc7f-20" value="ID" style="ellipse;whiteSpace=wrap;html=1;align=center;fontSize=14;" vertex="1" parent="1">
                    <mxGeometry x="620" y="430" width="100" height="40" as="geometry"/>
                </mxCell>
                <mxCell id="6Wv2fJGCumR8L-NIXc7f-21" style="edgeStyle=none;rounded=0;orthogonalLoop=1;jettySize=auto;html=1;exitX=0;exitY=0;exitDx=0;exitDy=0;entryX=1;entryY=1;entryDx=0;entryDy=0;endArrow=none;endFill=0;fontSize=14;" edge="1" parent="1" source="6Wv2fJGCumR8L-NIXc7f-22" target="6Wv2fJGCumR8L-NIXc7f-15">
                    <mxGeometry relative="1" as="geometry"/>
                </mxCell>
                <mxCell id="6Wv2fJGCumR8L-NIXc7f-22" value="ÄänestysID" style="ellipse;whiteSpace=wrap;html=1;align=center;fontSize=14;" vertex="1" parent="1">
                    <mxGeometry x="590" y="490" width="100" height="40" as="geometry"/>
                </mxCell>
                <mxCell id="6Wv2fJGCumR8L-NIXc7f-23" value="Ääniä" style="ellipse;whiteSpace=wrap;html=1;align=center;fontSize=14;" vertex="1" parent="1">
                    <mxGeometry x="484" y="520" width="100" height="40" as="geometry"/>
                </mxCell>
                <mxCell id="6Wv2fJGCumR8L-NIXc7f-24" style="edgeStyle=none;rounded=0;orthogonalLoop=1;jettySize=auto;html=1;exitX=1;exitY=1;exitDx=0;exitDy=0;entryX=0.5;entryY=0;entryDx=0;entryDy=0;endArrow=none;endFill=0;fontSize=14;" edge="1" parent="1" source="6Wv2fJGCumR8L-NIXc7f-27" target="6Wv2fJGCumR8L-NIXc7f-31">
                    <mxGeometry relative="1" as="geometry"/>
                </mxCell>
                <mxCell id="6Wv2fJGCumR8L-NIXc7f-25" style="edgeStyle=none;rounded=0;orthogonalLoop=1;jettySize=auto;html=1;exitX=0.5;exitY=1;exitDx=0;exitDy=0;entryX=0.655;entryY=0.025;entryDx=0;entryDy=0;entryPerimeter=0;endArrow=none;endFill=0;fontSize=14;" edge="1" parent="1" source="6Wv2fJGCumR8L-NIXc7f-27" target="6Wv2fJGCumR8L-NIXc7f-32">
                    <mxGeometry relative="1" as="geometry"/>
                </mxCell>
                <mxCell id="6Wv2fJGCumR8L-NIXc7f-26" style="edgeStyle=none;rounded=0;orthogonalLoop=1;jettySize=auto;html=1;exitX=0;exitY=0.75;exitDx=0;exitDy=0;entryX=1;entryY=0.5;entryDx=0;entryDy=0;endArrow=none;endFill=0;fontSize=14;" edge="1" parent="1" source="6Wv2fJGCumR8L-NIXc7f-27" target="6Wv2fJGCumR8L-NIXc7f-33">
                    <mxGeometry relative="1" as="geometry"/>
                </mxCell>
                <mxCell id="6Wv2fJGCumR8L-NIXc7f-27" value="Käyttäjä" style="whiteSpace=wrap;html=1;align=center;fontSize=14;" vertex="1" parent="1">
                    <mxGeometry x="180" y="280" width="100" height="40" as="geometry"/>
                </mxCell>
                <mxCell id="6Wv2fJGCumR8L-NIXc7f-28" value="1" style="edgeStyle=none;rounded=0;orthogonalLoop=1;jettySize=auto;html=1;exitX=0;exitY=0.5;exitDx=0;exitDy=0;entryX=0.5;entryY=0;entryDx=0;entryDy=0;endArrow=none;endFill=0;fontSize=14;" edge="1" parent="1" source="6Wv2fJGCumR8L-NIXc7f-30" target="6Wv2fJGCumR8L-NIXc7f-27">
                    <mxGeometry relative="1" as="geometry"/>
                </mxCell>
                <mxCell id="6Wv2fJGCumR8L-NIXc7f-29" value="N" style="edgeStyle=none;rounded=0;orthogonalLoop=1;jettySize=auto;html=1;exitX=1;exitY=0.5;exitDx=0;exitDy=0;entryX=0;entryY=0.5;entryDx=0;entryDy=0;endArrow=none;endFill=0;fontSize=14;" edge="1" parent="1" source="6Wv2fJGCumR8L-NIXc7f-30" target="6Wv2fJGCumR8L-NIXc7f-7">
                    <mxGeometry relative="1" as="geometry"/>
                </mxCell>
                <mxCell id="6Wv2fJGCumR8L-NIXc7f-30" value="Omistaa" style="shape=rhombus;perimeter=rhombusPerimeter;whiteSpace=wrap;html=1;align=center;fontSize=14;" vertex="1" parent="1">
                    <mxGeometry x="270" y="160" width="120" height="60" as="geometry"/>
                </mxCell>
                <mxCell id="6Wv2fJGCumR8L-NIXc7f-31" value="ID" style="ellipse;whiteSpace=wrap;html=1;align=center;fontSize=14;" vertex="1" parent="1">
                    <mxGeometry x="250" y="350" width="100" height="40" as="geometry"/>
                </mxCell>
                <mxCell id="6Wv2fJGCumR8L-NIXc7f-32" value="tunnus" style="ellipse;whiteSpace=wrap;html=1;align=center;fontSize=14;" vertex="1" parent="1">
                    <mxGeometry x="130" y="370" width="100" height="40" as="geometry"/>
                </mxCell>
                <mxCell id="6Wv2fJGCumR8L-NIXc7f-33" value="salasana" style="ellipse;whiteSpace=wrap;html=1;align=center;fontSize=14;" vertex="1" parent="1">
                    <mxGeometry x="40" y="300" width="100" height="40" as="geometry"/>
                </mxCell>
                <mxCell id="6Wv2fJGCumR8L-NIXc7f-34" value="KäyttäjäID" style="ellipse;whiteSpace=wrap;html=1;align=center;fontSize=14;" vertex="1" parent="1">
                    <mxGeometry x="660" y="190" width="100" height="40" as="geometry"/>
                </mxCell>
            </root>
        </mxGraphModel>
    </diagram>
</mxfile>